<svg width="41" height="44" viewBox="0 0 41 44" fill="none" xmlns="http://www.w3.org/2000/svg">
<g filter="url(#filter0_d_14_649)">
<path fill-rule="evenodd" clip-rule="evenodd" d="M30.2666 3.33331H11C7.31808 3.33331 4.33331 6.31808 4.33331 9.99998V29.2666C4.33331 32.9485 7.31808 35.9333 11 35.9333H30.2666C33.9485 35.9333 36.9333 32.9485 36.9333 29.2666V9.99998C36.9333 6.31808 33.9485 3.33331 30.2666 3.33331ZM34.4333 29.2666C34.4333 31.5678 32.5678 33.4333 30.2666 33.4333H11C8.69879 33.4333 6.83331 31.5678 6.83331 29.2666V9.99998C6.83331 7.69879 8.69879 5.83331 11 5.83331H30.2666C32.5678 5.83331 34.4333 7.69879 34.4333 9.99998V29.2666ZM20.45 16.65C20.4818 17.7448 19.811 18.7377 18.7833 19.1166C20.122 19.4784 21.0209 20.7327 20.9333 22.1166C20.9333 25.45 17.2833 25.55 16.75 25.55H11.0333V13.7166H16.6666C20.3166 13.7166 20.45 15.75 20.45 16.65ZM16.0833 15.7833H13.6333V18.55H16.2833C16.6854 18.5983 17.0888 18.47 17.3892 18.1984C17.6896 17.9267 17.8577 17.5383 17.85 17.1333C17.85 15.7368 16.4762 15.7732 16.1345 15.7823C16.1133 15.7829 16.096 15.7833 16.0833 15.7833ZM16.4166 23.5833H13.6333V20.25H16.45C16.9282 20.1873 17.4101 20.3348 17.7712 20.6544C18.1324 20.974 18.3374 21.4344 18.3333 21.9166C18.3333 23.5333 16.6666 23.5333 16.4166 23.5333V23.5833ZM28.5 14.8166H24.0833V15.9H28.5V14.8166ZM23.4284 18.0431C24.2089 17.2498 25.2879 16.8227 26.4 16.8666C29.4 16.8666 30.3333 19.4 30.2666 21.55H24.5833C24.5107 22.0904 24.6871 22.6346 25.0628 23.0298C25.4386 23.425 25.9732 23.6286 26.5166 23.5833C27.229 23.5868 27.8789 23.1774 28.1833 22.5333H30.0333C29.6217 24.2099 28.054 25.3398 26.3333 25.2C25.225 25.2512 24.1481 24.8239 23.3764 24.0268C22.6048 23.2296 22.2127 22.1394 22.3 21.0333C22.2381 19.9221 22.6478 18.8364 23.4284 18.0431ZM24.65 19.6666C24.5877 19.8378 24.5539 20.0179 24.55 20.2H28.0666C28.0404 19.735 27.8651 19.2908 27.5666 18.9333C27.2358 18.6312 26.7973 18.475 26.35 18.5C26.0521 18.4874 25.7553 18.5444 25.4833 18.6666C25.2637 18.7733 25.0703 18.927 24.9166 19.1166C24.7917 19.2802 24.701 19.4673 24.65 19.6666Z" fill="white"/>
</g>
<defs>
<filter id="filter0_d_14_649" x="-3" y="0" width="48" height="48" filterUnits="userSpaceOnUse" color-interpolation-filters="sRGB">
<feFlood flood-opacity="0" result="BackgroundImageFix"/>
<feColorMatrix in="SourceAlpha" type="matrix" values="0 0 0 0 0 0 0 0 0 0 0 0 0 0 0 0 0 0 127 0" result="hardAlpha"/>
<feOffset dy="4"/>
<feGaussianBlur stdDeviation="2"/>
<feComposite in2="hardAlpha" operator="out"/>
<feColorMatrix type="matrix" values="0 0 0 0 0 0 0 0 0 0 0 0 0 0 0 0 0 0 0.25 0"/>
<feBlend mode="normal" in2="BackgroundImageFix" result="effect1_dropShadow_14_649"/>
<feBlend mode="normal" in="SourceGraphic" in2="effect1_dropShadow_14_649" result="shape"/>
</filter>
</defs>
</svg>
