<svg width="40" height="40" viewBox="0 0 40 40" fill="none" xmlns="http://www.w3.org/2000/svg">
<path fill-rule="evenodd" clip-rule="evenodd" d="M34.6181 18.8668C34.3811 15.0392 32.6659 11.4535 29.8348 8.86677L29.8181 8.76677C29.692 8.61196 29.5243 8.49633 29.3348 8.43344C26.6665 6.20285 23.2959 4.98683 19.8181 5.00011H18.8348C16.9745 5.16715 15.1608 5.67564 13.4848 6.50011H13.3348C7.12885 9.5255 3.83077 16.4326 5.37945 23.1607C6.92812 29.8889 12.914 34.659 19.8181 34.6668H20.8015C24.7297 34.4059 28.3931 32.5941 30.9846 29.6305C33.5762 26.667 34.8834 22.7947 34.6181 18.8668ZM23.4848 19.4501C22.9515 18.4168 22.4015 17.3835 21.8181 16.3835C23.6652 15.365 25.4022 14.1586 27.0015 12.7835L28.6681 11.3168C30.5776 13.32 31.7525 15.9106 32.0015 18.6668C29.2034 18.3764 26.3756 18.6195 23.6681 19.3835L23.4848 19.4501ZM19.8348 7.53348H19.0181C17.9897 7.61531 16.976 7.82814 16.0015 8.16682C17.6435 10.0896 19.1525 12.1221 20.5181 14.2501C22.249 13.3066 23.8795 12.1897 25.3848 10.9168L26.7681 9.71682C24.733 8.30049 22.3142 7.5388 19.8348 7.53348ZM13.6348 9.20015L13.7515 9.31682C15.3982 11.23 16.9075 13.2573 18.2681 15.3835C15.6706 16.5191 12.918 17.2607 10.1015 17.5835L7.66814 17.8501C8.26757 14.217 10.4548 11.04 13.6348 9.18348V9.20015ZM7.51814 20.3668V20.6335C7.72147 23.5109 8.93102 26.2251 10.9348 28.3002C12.662 25.633 15.0058 23.4207 17.7681 21.8502C18.8476 21.268 19.9607 20.7505 21.1015 20.3002C20.6181 19.3502 20.1181 18.4168 19.5848 17.5002C16.6706 18.8268 13.5661 19.6873 10.3848 20.0502L7.51814 20.3668ZM20.6181 32.1335H19.8015C17.2884 32.1295 14.8379 31.3495 12.7848 29.9002C14.3137 27.464 16.4205 25.443 18.9181 24.0168C19.9987 23.4514 21.1117 22.9506 22.2515 22.5168C23.3611 24.9684 24.2914 27.4972 25.0348 30.0835L25.2681 30.8835C23.8185 31.61 22.2367 32.0353 20.6181 32.1335ZM27.4181 29.5335C28.0211 29.0642 28.5791 28.5397 29.0848 27.9668C30.7728 26.0689 31.8273 23.692 32.1015 21.1668C29.588 20.8853 27.0441 21.0775 24.6015 21.7335C25.7224 24.2299 26.6637 26.8031 27.4181 29.4335V29.5335Z" fill="white"/>
</svg>
