<svg width="37" height="40" viewBox="0 0 37 40" fill="none" xmlns="http://www.w3.org/2000/svg">
<path d="M33.8735 15.1667C33.7202 9.5 29.5818 5 24.3705 5C22.6845 5 20.0788 6.33333 19.0059 8.5C18.8526 9 18.2395 9 18.0863 8.5C16.8601 6.5 14.4077 5.16667 12.5684 5.16667C7.51037 5.16667 3.2187 9.66667 3.06543 15.1667V15.3333V15.5C3.06543 18.3333 4.13835 21 5.97763 23C5.97763 23 5.97763 23 5.97763 23.1667C6.13091 23.3333 13.488 30.3333 16.8601 33.5C17.7797 34.3333 19.1592 34.3333 20.0788 33.5C23.4508 30.3333 30.6547 23.3333 30.9613 23.1667C30.9613 23.1667 30.9613 23.1667 30.9613 23C32.8005 21.1667 33.8735 18.5 33.8735 15.5V15.1667Z" fill="white"/>
</svg>
