<svg width="56" height="55" viewBox="0 0 56 55" fill="none" xmlns="http://www.w3.org/2000/svg">
<path d="M56 19.0516C55.7214 8.55336 48.199 0.216553 38.7264 0.216553C35.6617 0.216553 30.9254 2.68672 28.9751 6.70073C28.6965 7.62704 27.5821 7.62704 27.3035 6.70073C25.0746 2.99549 20.6169 0.525323 17.2736 0.525323C8.0796 0.525323 0.278607 8.86213 0 19.0516V19.3603V19.6691C0 24.9182 1.95025 29.8585 5.29353 33.5638C5.29353 33.5638 5.29353 33.5638 5.29353 33.8725C5.57214 34.1813 18.9453 47.1497 25.0746 53.0163C26.7463 54.5602 29.2537 54.5602 30.9254 53.0163C37.0547 47.1497 50.1493 34.1813 50.7065 33.8725C50.7065 33.8725 50.7065 33.8725 50.7065 33.5638C54.0498 30.1673 56 25.227 56 19.6691V19.0516Z" fill="#FF4141"/>
</svg>
