<svg width="40" height="40" viewBox="0 0 40 40" fill="none" xmlns="http://www.w3.org/2000/svg">
<path fill-rule="evenodd" clip-rule="evenodd" d="M13.3333 3.33331H26.1666C31.6895 3.33331 36.1666 7.81047 36.1666 13.3333V26.1666C36.1666 31.6895 31.6895 36.1666 26.1666 36.1666H13.3333C7.81046 36.1666 3.33331 31.6895 3.33331 26.1666V13.3333C3.33331 7.81047 7.81046 3.33331 13.3333 3.33331ZM33.6666 13.3333C33.6575 9.19498 30.305 5.84248 26.1666 5.83331H13.3333C9.19498 5.84248 5.84248 9.19498 5.83331 13.3333V26.1666C5.84248 30.305 9.19498 33.6575 13.3333 33.6666H26.1666C30.305 33.6575 33.6575 30.305 33.6666 26.1666V13.3333Z" fill="white"/>
<path fill-rule="evenodd" clip-rule="evenodd" d="M12.5833 19.75C12.5925 15.7957 15.7957 12.5925 19.75 12.5833C23.7042 12.5925 26.9075 15.7957 26.9166 19.75C26.9166 23.708 23.708 26.9166 19.75 26.9166C15.7919 26.9166 12.5833 23.708 12.5833 19.75ZM24.4166 19.75C24.4166 17.1727 22.3273 15.0833 19.75 15.0833C17.1764 15.0925 15.0925 17.1764 15.0833 19.75C15.0833 22.3273 17.1727 24.4166 19.75 24.4166C22.3273 24.4166 24.4166 22.3273 24.4166 19.75Z" fill="white"/>
<path d="M25.85 10.8417C25.85 9.84294 26.6596 9.03333 27.6583 9.03333C28.657 9.03333 29.4666 9.84294 29.4666 10.8417C29.4666 11.8404 28.657 12.65 27.6583 12.65C26.6596 12.65 25.85 11.8404 25.85 10.8417Z" fill="white"/>
</svg>
