<svg width="40" height="40" viewBox="0 0 40 40" fill="none" xmlns="http://www.w3.org/2000/svg">
<mask id="mask0_14_652" style="mask-type:alpha" maskUnits="userSpaceOnUse" x="16" y="13" width="19" height="21">
<path fill-rule="evenodd" clip-rule="evenodd" d="M16.7328 13.4428H34.989V33.3333H16.7328V13.4428Z" fill="white"/>
</mask>
<g mask="url(#mask0_14_652)">
<path fill-rule="evenodd" clip-rule="evenodd" d="M34.9797 32.4848C34.9837 29.2995 34.9999 26.1141 34.974 22.929C34.9626 21.5338 34.9126 20.135 34.6194 18.7619C34.1387 16.5106 33.0571 14.7529 30.9085 13.9333C29.475 13.3865 27.9764 13.3513 26.4795 13.5633C25.2221 13.7413 24.0637 14.2203 23.0084 15.1106C23.0084 14.7867 23.0073 14.5719 23.0087 14.3573C23.0119 13.8755 22.7877 13.6577 22.3258 13.6599C20.6842 13.6676 19.0426 13.6656 17.4009 13.6612C16.949 13.6599 16.7322 13.8465 16.7329 14.3545C16.7415 20.4668 16.7383 26.5791 16.7385 32.6915C16.7385 32.9259 16.7077 33.1752 16.979 33.2907C17.0076 33.3285 22.9342 33.3426 22.934 33.3041C23.3227 33.1295 23.2032 32.7609 23.2038 32.4609C23.2092 29.4463 23.1911 26.4315 23.2074 23.4168C23.2123 22.4741 23.2471 21.5217 23.6543 20.6439C24.1368 19.6038 25.1353 19.1532 26.5418 19.3376C27.5094 19.4643 28.127 20.1195 28.3193 21.261C28.3905 21.6826 28.4438 22.1138 28.4462 22.5409C28.4651 25.8571 28.4677 29.1732 28.4814 32.4893C28.4828 32.7955 28.3909 33.1571 28.7853 33.3109C28.7718 33.3545 34.7393 33.3281 34.7409 33.286C35.062 33.0987 34.9793 32.7722 34.9797 32.4848" fill="white"/>
</g>
<path fill-rule="evenodd" clip-rule="evenodd" d="M12.5973 13.3334C10.8644 13.3479 9.13108 13.3447 7.39806 13.3351C6.90839 13.3322 6.6658 13.5012 6.66669 14.0585C6.67754 20.273 6.67333 26.4874 6.6746 32.7017C6.67473 32.9383 6.63849 33.1983 6.92983 33.306C6.94094 33.3439 13.0503 33.3415 13.0668 33.3039C13.3884 33.1787 13.3235 32.8871 13.3237 32.6351C13.3265 26.4645 13.3215 20.2938 13.3334 14.1233C13.3342 13.5633 13.1426 13.3288 12.5973 13.3334" fill="white"/>
<path fill-rule="evenodd" clip-rule="evenodd" d="M9.99996 5C8.15913 5 6.66669 6.49244 6.66669 8.33328C6.66669 10.1743 8.15913 11.6667 9.99996 11.6667C11.8409 11.6667 13.3334 10.1743 13.3334 8.33328C13.3334 6.49244 11.8409 5 9.99996 5" fill="white"/>
</svg>
