<svg width="40" height="40" viewBox="0 0 40 40" fill="none" xmlns="http://www.w3.org/2000/svg">
<mask id="mask0_27_2039" style="mask-type:alpha" maskUnits="userSpaceOnUse" x="3" y="6" width="33" height="28">
<path fill-rule="evenodd" clip-rule="evenodd" d="M3.33331 6.66669H35.7764V33.2859H3.33331V6.66669Z" fill="white"/>
</mask>
<g mask="url(#mask0_27_2039)">
<path fill-rule="evenodd" clip-rule="evenodd" d="M7.61349 30.4748C9.52016 31.2065 11.6335 31.5031 11.6568 31.5065C11.7052 31.5148 13.7785 31.8531 17.3752 31.3048C20.9168 30.7648 23.9718 28.4665 24.0018 28.4431C24.1068 28.3748 26.3985 26.9748 28.8768 22.7815C31.3435 18.6065 30.9218 13.8865 30.9168 13.8398C30.8918 13.5765 30.9902 13.3181 31.1868 13.1415C31.1868 13.1415 31.6968 12.6748 32.3768 12.1198C31.9085 12.2048 31.5002 12.2648 31.4202 12.2765C31.0335 12.3248 30.6768 12.1231 30.5302 11.7731C30.3852 11.4215 30.4935 11.0165 30.7968 10.7865C30.8068 10.7815 31.3068 10.3998 31.9235 9.86481C31.0302 10.1665 30.2702 10.3048 30.2252 10.3131C29.8652 10.3698 29.5168 10.2048 29.3485 9.89148C29.3535 9.93481 29.0652 9.66481 28.0468 8.98481C27.0585 8.32648 25.3518 8.29981 24.7785 8.34648C24.7802 8.34815 22.4252 8.63981 20.9885 10.6398C19.5635 12.6215 20.1435 14.9965 20.1485 15.0215C20.2168 15.2831 20.1518 15.5615 19.9768 15.7681C19.8018 15.9731 19.5302 16.0748 19.2702 16.0598L17.7085 15.9248C17.4018 15.9015 15.6785 15.6065 13.9302 14.9881C12.1768 14.3698 11.1302 13.7265 9.68182 12.8381C8.71349 12.2448 7.43182 11.0031 6.59016 10.1398C6.33182 10.9448 6.13182 12.1348 6.55016 13.4065C7.22516 15.4665 8.68682 16.3231 8.70016 16.3315C9.01349 16.5031 9.18016 16.8565 9.11682 17.2081C9.05349 17.5598 8.77349 17.8315 8.41849 17.8831C8.25516 17.9131 7.84016 17.9215 6.92349 17.7315C6.74849 17.6965 6.57682 17.6531 6.41516 17.6015C6.56516 18.2498 6.91849 19.2315 7.74849 20.0931C9.12516 21.5265 10.5185 21.7081 10.5768 21.7148C10.9868 21.7631 11.3035 22.1065 11.3152 22.5198C11.3268 22.9331 11.0385 23.2898 10.6335 23.3631C10.6335 23.3631 9.68349 23.5331 9.08849 23.5915C9.06182 23.5931 9.03516 23.5965 9.00682 23.5981C9.05682 23.6798 9.10849 23.7615 9.16016 23.8398C9.17516 23.8648 9.95182 25.0831 11.2485 25.6548C12.5618 26.2331 13.4468 26.1865 13.4535 26.1831C13.8252 26.1515 14.1635 26.3748 14.2935 26.7165C14.4235 27.0598 14.3202 27.4465 14.0302 27.6698C13.9685 27.7198 12.4868 28.8581 9.99849 29.8781C9.22516 30.1931 8.40516 30.3765 7.61349 30.4748ZM13.5168 33.2865C12.1852 33.2865 11.4502 33.1615 11.3985 33.1515C11.3218 33.1431 8.76349 32.7831 6.56516 31.8481C3.17182 30.4098 3.27016 29.9298 3.36516 29.4665C3.45016 29.0481 3.93682 28.7448 4.36349 28.8098C6.26349 29.0331 8.08682 28.8581 9.36682 28.3348C10.0918 28.0381 10.7252 27.7298 11.2518 27.4465C11.0368 27.3715 10.8118 27.2831 10.5768 27.1798C8.79516 26.3948 7.79349 24.7998 7.75182 24.7315C7.57182 24.4548 7.11516 23.7265 6.98516 23.2998C6.86349 22.8965 6.85182 22.8481 6.85182 22.8481C6.79182 22.5715 6.87516 22.2748 7.07349 22.0748C7.13349 22.0131 7.20349 21.9631 7.27849 21.9215C7.03516 21.7248 6.79016 21.5015 6.54682 21.2498C4.71182 19.3398 4.64182 17.0431 4.64016 16.9465L4.60849 16.3131C4.59349 16.0048 4.75016 15.7148 5.01516 15.5565C5.21349 15.4381 5.45016 15.4115 5.66682 15.4698C5.40182 15.0265 5.15849 14.5148 4.96682 13.9248C3.96682 10.8848 5.56516 8.31648 5.63516 8.20981C5.77349 7.98815 6.00849 7.84648 6.26682 7.82481C6.53016 7.80148 6.78182 7.90315 6.95682 8.09648C7.58182 8.79148 9.44849 10.7398 10.5535 11.4165C11.9652 12.2848 12.8985 12.8565 14.4852 13.4165C16.1168 13.9931 17.6852 14.2498 17.8385 14.2631L18.3735 14.3098C18.3018 13.1665 18.4318 11.3398 19.6352 9.66648C21.5168 7.04815 24.4968 6.69981 24.6235 6.68815C24.7502 6.67481 27.2952 6.48148 28.9718 7.59815C29.6502 8.05148 30.0718 8.36315 30.3385 8.58481C30.8102 8.47481 31.6135 8.25481 32.3085 7.91315L33.7168 7.21815C34.0152 7.06481 34.3752 7.10815 34.6318 7.32815C34.8868 7.54648 34.9852 7.89648 34.8852 8.21648C34.8435 8.33981 34.5785 9.13981 34.1052 9.90148C34.3985 9.78648 34.6202 9.69315 34.6235 9.69148C34.9668 9.55481 35.3585 9.65148 35.5918 9.93648C35.8235 10.2248 35.8385 10.6298 35.6302 10.9331C35.5185 11.0965 34.5085 12.5481 33.6618 13.2248C33.2335 13.5681 32.8518 13.8948 32.6035 14.1115C32.6635 15.4648 32.6352 19.6965 30.3135 23.6281C27.5885 28.2398 25.0352 29.7631 24.9285 29.8248C24.8752 29.8731 21.6002 32.3465 17.6268 32.9515C15.9285 33.2131 14.5452 33.2865 13.5168 33.2865Z" fill="white"/>
</g>
</svg>
